Coordinates
version=1
nRows=16
nColumns=28
inDegrees=yes

Units are S.I. units (second, meters, Newtons, ...)
Angles are in degrees.

endheader
time	pelvis_tilt	pelvis_list	pelvis_rotation	pelvis_tx	pelvis_ty	pelvis_tz	hip_flexion_r	hip_adduction_r	hip_rotation_r	knee_angle_r	ankle_angle_r	subtalar_angle_r	mtp_angle_r	hip_flexion_l	hip_adduction_l	hip_rotation_l	knee_angle_l	socket_flexion	socket_adduction	socket_rotation	socket_tx	socket_ty	socket_tz	foot_flex	lumbar_extension	lumbar_bending	lumbar_rotation
      0.62916667	      0.35276525	     -3.76693882	      6.61605889	     -0.03105321	      0.98959604	      0.29392614	     23.69913769	      4.33304857	     -7.03845211	     -5.72950493	     18.45620178	    -16.88989472	    -20.15603489	    -24.90685940	     -7.10228332	     -3.31533779	      0.55689051	      2.30274808	      3.30255206	     21.22927395	      0.00000000	      0.00326111	      0.00000000	      8.08720823	    -10.28047679	      4.22932078	     -4.41596676
      0.63333333	     -0.24049887	     -3.58536965	      6.68223675	     -0.03105103	      0.98882771	      0.29384424	     24.52112163	      3.98349518	     -7.39281818	     -6.14883861	     18.38833589	    -16.26110662	    -17.75256482	    -23.86282588	     -6.90953784	     -3.30203379	     -0.55562243	      1.70174752	      3.02873870	     21.46287584	      0.00000000	      0.00304193	      0.00000000	      8.11607650	     -9.57462226	      3.99980181	     -4.90326297
      0.63750000	      0.03337526	     -3.75898450	      6.64244390	     -0.02460328	      0.98812445	      0.29405406	     24.52403321	      4.27256461	     -7.16877814	     -7.08022704	     17.79795799	    -16.57196590	    -17.33815841	    -24.48967929	     -7.11342083	     -3.43264765	     -0.54085725	      1.89365747	      3.08005459	     21.39013972	      0.00000000	      0.00313286	      0.00000000	      8.04630169	     -9.85400108	      4.30426188	     -4.56153899
      0.64166667	      0.32205714	     -3.96196845	      6.53088672	     -0.01782480	      0.98736102	      0.29428114	     24.39669378	      4.62490433	     -6.80709505	     -7.73697235	     15.32261040	    -17.48770539	     -9.60887797	    -25.28017993	     -7.30301080	     -3.66735531	     -0.21707010	      2.25734302	      3.16558101	     21.33220746	      0.00000000	      0.00334288	      0.00000000	      7.98037268	    -10.10066672	      4.64875035	     -4.31980622
      0.64583333	      0.40075213	     -4.10218261	      6.50604268	     -0.01137639	      0.98646029	      0.29452888	     24.63794480	      4.84317519	     -6.58590391	     -8.77790336	     14.99033364	    -17.52903029	     -9.60600342	    -25.56494754	     -7.46535971	     -3.68960843	     -0.51908604	      2.32180399	      3.13698367	     21.22628694	      0.00000000	      0.00334562	      0.00000000	      7.88780500	    -10.14020660	      4.92428206	     -4.37060118
      0.65000000	      0.39427051	     -4.26088420	      6.38670985	     -0.00478368	      0.98545308	      0.29487246	     25.00224029	      5.09727858	     -6.33549581	     -9.90927403	     14.58658255	    -17.60896216	     -9.28539371	    -25.73677937	     -7.59622115	     -4.01316117	     -0.94120735	      2.33578824	      3.07829555	     21.32624468	      0.00000000	      0.00331750	      0.00000000	      7.78330181	    -10.07451750	      5.19773714	     -4.27819719
      0.65416667	      0.44905455	     -4.42247907	      6.32536991	      0.00170134	      0.98457823	      0.29527617	     25.26994141	      5.35554705	     -6.10690016	    -10.97255403	     14.15527034	    -17.64510868	     -9.13523212	    -25.95434184	     -7.76765815	     -4.07938920	     -1.33968188	      2.38278116	      3.04440843	     21.22014294	      0.00000000	      0.00324697	      0.00000000	      7.63840578	    -10.08900415	      5.47054319	     -4.27494499
      0.65833333	      0.50936627	     -4.59194560	      6.25541531	      0.00824996	      0.98376098	      0.29566933	     25.51979457	      5.62148265	     -5.88832189	    -12.03874396	     13.73850976	    -17.67572744	     -9.01865329	    -26.16955851	     -7.94062812	     -4.15532460	     -1.74698072	      2.45159349	      3.01842075	     21.10902647	      0.00000000	      0.00318904	      0.00000000	      7.46297725	    -10.09424587	      5.76357327	     -4.27166835
      0.66250000	      0.38344865	     -4.71134197	      6.12694268	      0.01492871	      0.98266613	      0.29608617	     25.98818780	      5.80462371	     -5.73585918	    -13.11130785	     11.87539306	    -18.26289977	     -3.17602825	    -25.95938960	     -8.03770288	     -4.58972693	     -2.84902666	      2.13758406	      2.80099145	     21.36917443	      0.00000000	      0.00302402	      0.00000000	      7.28619904	     -9.87895726	      5.95326423	     -4.09694851
      0.66666667	      0.45958783	     -4.87260239	      6.14423860	      0.02144728	      0.98203191	      0.29643314	     26.13126293	      6.04428441	     -5.46809280	    -14.03231056	     11.56167593	    -18.21812086	     -3.20150223	    -26.15835729	     -8.24909158	     -4.49040722	     -3.19049213	      2.31358935	      2.81264173	     21.28870382	      0.00000000	      0.00298408	      0.00000000	      7.07623177	     -9.91027468	      6.23109768	     -4.11014321
      0.67083333	      0.55022511	     -5.08525068	      6.02826058	      0.02798462	      0.98138692	      0.29696843	     26.35850515	      6.37041531	     -5.31295173	    -15.13870767	     11.16541685	    -18.22584725	     -3.22435985	    -26.36749074	     -8.45059803	     -4.52318077	     -3.62673978	      2.44234819	      2.81541037	     21.09569643	      0.00000000	      0.00280568	      0.00000000	      6.80077304	     -9.97185219	      6.56702903	     -4.11983133
      0.67500000	      0.60556291	     -5.34110215	      5.83922599	      0.03480152	      0.98069273	      0.29749129	     26.61674683	      6.73604328	     -5.29794384	    -16.26469059	     10.72409008	    -18.32181910	     -3.15540444	    -26.50620297	     -8.64534071	     -4.87309404	     -4.26195222	      2.46842984	      2.75071376	     20.99465723	      0.00000000	      0.00266219	      0.00000000	      6.53009187	     -9.93832001	      6.93808085	     -4.00498961
      0.67916667	      0.43354259	     -5.52232456	      5.69584829	      0.04138101	      0.97987533	      0.29821472	     27.01943978	      7.04321367	     -4.93121675	    -17.18272331	      9.83852907	    -18.84806987	     -1.65659846	    -25.92714943	     -8.85293262	     -5.39724275	     -6.12340064	      1.81944033	      2.41485809	     21.34375997	      0.00000000	      0.00252202	      0.00000000	      6.23402889	     -9.67872916	      7.15119492	     -3.80680271
      0.68333333	      0.52386264	     -5.73125580	      5.61058691	      0.04802906	      0.97945714	      0.29879896	     27.13618650	      7.36074530	     -4.77143312	    -18.13424613	      9.54174067	    -18.81224846	     -1.65202923	    -26.08646940	     -9.07225338	     -5.35650840	     -6.56348963	      2.03778905	      2.46399983	     21.16553424	      0.00000000	      0.00240813	      0.00000000	      5.89083444	     -9.72646961	      7.45625423	     -3.79547479
      0.68750000	      0.61846347	     -5.97568810	      5.47089004	      0.05476980	      0.97906604	      0.29941946	     27.25155237	      7.72093788	     -4.69874346	    -19.10183334	      9.23260160	    -18.80782691	     -1.63768561	    -26.22444227	     -9.29639586	     -5.42068031	     -7.12175350	      2.20852697	      2.49298023	     20.94008107	      0.00000000	      0.00226930	      0.00000000	      5.52206199	     -9.75538377	      7.80198460	     -3.74675803
      0.69166667	      0.70404773	     -6.25566953	      5.32433090	      0.06159861	      0.97873284	      0.30000897	     27.34201190	      8.11120868	     -4.66958853	    -20.00941553	      8.92832752	    -18.82402015	     -1.59106990	    -26.29119714	     -9.55475203	     -5.57103974	     -7.84300347	      2.30967408	      2.48508769	     20.75682689	      0.00000000	      0.00213804	      0.00000000	      5.14209902	     -9.75884662	      8.18382268	     -3.63072288
